<mxfile host="app.diagrams.net" modified="2023-05-20T22:33:15.669Z" agent="Mozilla/5.0 (Windows NT 10.0; Win64; x64) AppleWebKit/537.36 (KHTML, like Gecko) Chrome/113.0.0.0 Safari/537.36" etag="tyRol5WrO-m117LKbQNX" version="21.3.2" type="device">
  <diagram id="5JuqMDL5MWqo4CLIVIF4" name="Page-1">
    <mxGraphModel dx="1434" dy="788" grid="1" gridSize="10" guides="1" tooltips="1" connect="1" arrows="1" fold="1" page="1" pageScale="1" pageWidth="850" pageHeight="1100" math="0" shadow="0">
      <root>
        <mxCell id="0" />
        <mxCell id="1" parent="0" />
        <mxCell id="gw2zK7QxY8a93qra24SP-1" value="AWS Cloud" style="sketch=0;outlineConnect=0;html=1;whiteSpace=wrap;fontSize=12;fontStyle=0;shape=mxgraph.aws4.group;grIcon=mxgraph.aws4.group_aws_cloud;strokeColor=#6c8ebf;fillColor=#dae8fc;verticalAlign=top;align=left;spacingLeft=30;dashed=0;" vertex="1" parent="1">
          <mxGeometry x="18.5" y="80" width="751.5" height="550" as="geometry" />
        </mxCell>
        <mxCell id="KQXkTG9pGna8LuizBAGZ-19" style="edgeStyle=orthogonalEdgeStyle;rounded=0;orthogonalLoop=1;jettySize=auto;html=1;" parent="1" source="KQXkTG9pGna8LuizBAGZ-1" target="KQXkTG9pGna8LuizBAGZ-3" edge="1">
          <mxGeometry relative="1" as="geometry" />
        </mxCell>
        <mxCell id="KQXkTG9pGna8LuizBAGZ-1" value="" style="outlineConnect=0;dashed=0;verticalLabelPosition=bottom;verticalAlign=top;align=center;html=1;shape=mxgraph.aws3.lambda_function;fillColor=#F58534;gradientColor=none;" parent="1" vertex="1">
          <mxGeometry x="286" y="280" width="69" height="72" as="geometry" />
        </mxCell>
        <mxCell id="KQXkTG9pGna8LuizBAGZ-18" style="edgeStyle=orthogonalEdgeStyle;rounded=0;orthogonalLoop=1;jettySize=auto;html=1;" parent="1" source="KQXkTG9pGna8LuizBAGZ-2" target="KQXkTG9pGna8LuizBAGZ-1" edge="1">
          <mxGeometry relative="1" as="geometry" />
        </mxCell>
        <mxCell id="KQXkTG9pGna8LuizBAGZ-2" value="" style="sketch=0;points=[[0,0,0],[0.25,0,0],[0.5,0,0],[0.75,0,0],[1,0,0],[0,1,0],[0.25,1,0],[0.5,1,0],[0.75,1,0],[1,1,0],[0,0.25,0],[0,0.5,0],[0,0.75,0],[1,0.25,0],[1,0.5,0],[1,0.75,0]];outlineConnect=0;fontColor=#232F3E;gradientColor=#FF4F8B;gradientDirection=north;fillColor=#BC1356;strokeColor=#ffffff;dashed=0;verticalLabelPosition=bottom;verticalAlign=top;align=center;html=1;fontSize=12;fontStyle=0;aspect=fixed;shape=mxgraph.aws4.resourceIcon;resIcon=mxgraph.aws4.eventbridge;" parent="1" vertex="1">
          <mxGeometry x="31.5" y="277" width="78" height="78" as="geometry" />
        </mxCell>
        <mxCell id="KQXkTG9pGna8LuizBAGZ-20" style="edgeStyle=orthogonalEdgeStyle;rounded=0;orthogonalLoop=1;jettySize=auto;html=1;" parent="1" source="KQXkTG9pGna8LuizBAGZ-3" target="KQXkTG9pGna8LuizBAGZ-6" edge="1">
          <mxGeometry relative="1" as="geometry" />
        </mxCell>
        <mxCell id="KQXkTG9pGna8LuizBAGZ-3" value="" style="outlineConnect=0;dashed=0;verticalLabelPosition=bottom;verticalAlign=top;align=center;html=1;shape=mxgraph.aws3.redshift;fillColor=#2E73B8;gradientColor=none;" parent="1" vertex="1">
          <mxGeometry x="460" y="278.5" width="67.5" height="75" as="geometry" />
        </mxCell>
        <mxCell id="KQXkTG9pGna8LuizBAGZ-5" value="" style="outlineConnect=0;dashed=0;verticalLabelPosition=bottom;verticalAlign=top;align=center;html=1;shape=mxgraph.aws3.sns;fillColor=#D9A741;gradientColor=none;" parent="1" vertex="1">
          <mxGeometry x="282.25" y="474" width="76.5" height="76.5" as="geometry" />
        </mxCell>
        <mxCell id="KQXkTG9pGna8LuizBAGZ-6" value="" style="sketch=0;points=[[0,0,0],[0.25,0,0],[0.5,0,0],[0.75,0,0],[1,0,0],[0,1,0],[0.25,1,0],[0.5,1,0],[0.75,1,0],[1,1,0],[0,0.25,0],[0,0.5,0],[0,0.75,0],[1,0.25,0],[1,0.5,0],[1,0.75,0]];outlineConnect=0;fontColor=#232F3E;gradientColor=#945DF2;gradientDirection=north;fillColor=#5A30B5;strokeColor=#ffffff;dashed=0;verticalLabelPosition=bottom;verticalAlign=top;align=center;html=1;fontSize=12;fontStyle=0;aspect=fixed;shape=mxgraph.aws4.resourceIcon;resIcon=mxgraph.aws4.quicksight;" parent="1" vertex="1">
          <mxGeometry x="679" y="277" width="78" height="78" as="geometry" />
        </mxCell>
        <mxCell id="KQXkTG9pGna8LuizBAGZ-7" value="AWS Eventbridge" style="text;html=1;strokeColor=none;fillColor=none;align=center;verticalAlign=middle;whiteSpace=wrap;rounded=0;" parent="1" vertex="1">
          <mxGeometry x="10" y="370" width="121" height="30" as="geometry" />
        </mxCell>
        <mxCell id="KQXkTG9pGna8LuizBAGZ-22" style="edgeStyle=orthogonalEdgeStyle;rounded=0;orthogonalLoop=1;jettySize=auto;html=1;" parent="1" source="KQXkTG9pGna8LuizBAGZ-8" target="KQXkTG9pGna8LuizBAGZ-5" edge="1">
          <mxGeometry relative="1" as="geometry" />
        </mxCell>
        <mxCell id="KQXkTG9pGna8LuizBAGZ-8" value="AWS Lambda" style="text;html=1;strokeColor=none;fillColor=none;align=center;verticalAlign=middle;whiteSpace=wrap;rounded=0;" parent="1" vertex="1">
          <mxGeometry x="260" y="370" width="121" height="30" as="geometry" />
        </mxCell>
        <mxCell id="KQXkTG9pGna8LuizBAGZ-9" value="AWS Redshift" style="text;html=1;strokeColor=none;fillColor=none;align=center;verticalAlign=middle;whiteSpace=wrap;rounded=0;" parent="1" vertex="1">
          <mxGeometry x="433.25" y="370" width="121" height="30" as="geometry" />
        </mxCell>
        <mxCell id="KQXkTG9pGna8LuizBAGZ-10" value="AWS Quicksight" style="text;html=1;strokeColor=none;fillColor=none;align=center;verticalAlign=middle;whiteSpace=wrap;rounded=0;" parent="1" vertex="1">
          <mxGeometry x="657.5" y="370" width="121" height="30" as="geometry" />
        </mxCell>
        <mxCell id="KQXkTG9pGna8LuizBAGZ-11" value="AWS SNS" style="text;html=1;strokeColor=none;fillColor=none;align=center;verticalAlign=middle;whiteSpace=wrap;rounded=0;" parent="1" vertex="1">
          <mxGeometry x="260" y="560" width="121" height="30" as="geometry" />
        </mxCell>
        <mxCell id="KQXkTG9pGna8LuizBAGZ-23" value="&lt;b style=&quot;font-size: 13px;&quot;&gt;&lt;font style=&quot;font-size: 13px;&quot;&gt;Architecture for Currency Exchange Rate Predictor&lt;/font&gt;&lt;/b&gt;" style="text;html=1;strokeColor=none;fillColor=none;align=center;verticalAlign=middle;whiteSpace=wrap;rounded=0;opacity=40;fontSize=13;" parent="1" vertex="1">
          <mxGeometry x="18.5" y="600" width="331.5" height="30" as="geometry" />
        </mxCell>
        <mxCell id="KQXkTG9pGna8LuizBAGZ-24" value="Send Email Notification if rate/prediction crosses a threshold" style="text;html=1;strokeColor=none;fillColor=none;align=center;verticalAlign=middle;whiteSpace=wrap;rounded=0;fontSize=12;opacity=40;" parent="1" vertex="1">
          <mxGeometry x="330" y="430" width="220" height="26" as="geometry" />
        </mxCell>
        <mxCell id="KQXkTG9pGna8LuizBAGZ-25" value="Trigger to fetch rate everyday at 8:00 am CET" style="text;html=1;strokeColor=none;fillColor=none;align=center;verticalAlign=middle;whiteSpace=wrap;rounded=0;fontSize=12;opacity=40;" parent="1" vertex="1">
          <mxGeometry x="109.5" y="290" width="190" height="26" as="geometry" />
        </mxCell>
        <mxCell id="KQXkTG9pGna8LuizBAGZ-26" value="Save the data" style="text;html=1;strokeColor=none;fillColor=none;align=center;verticalAlign=middle;whiteSpace=wrap;rounded=0;fontSize=12;opacity=40;" parent="1" vertex="1">
          <mxGeometry x="303.5" y="290" width="190" height="26" as="geometry" />
        </mxCell>
        <mxCell id="KQXkTG9pGna8LuizBAGZ-27" value="Visualize the data" style="text;html=1;strokeColor=none;fillColor=none;align=center;verticalAlign=middle;whiteSpace=wrap;rounded=0;fontSize=12;opacity=40;" parent="1" vertex="1">
          <mxGeometry x="510" y="290" width="190" height="26" as="geometry" />
        </mxCell>
        <mxCell id="leOx71lb5nMiQ_t4TzL1-15" style="edgeStyle=orthogonalEdgeStyle;rounded=0;orthogonalLoop=1;jettySize=auto;html=1;entryX=1;entryY=0.5;entryDx=0;entryDy=0;entryPerimeter=0;" parent="1" source="leOx71lb5nMiQ_t4TzL1-2" target="leOx71lb5nMiQ_t4TzL1-10" edge="1">
          <mxGeometry relative="1" as="geometry" />
        </mxCell>
        <mxCell id="leOx71lb5nMiQ_t4TzL1-2" value="" style="dashed=0;outlineConnect=0;html=1;align=center;labelPosition=center;verticalLabelPosition=bottom;verticalAlign=top;shape=mxgraph.weblogos.github" parent="1" vertex="1">
          <mxGeometry x="485.6" y="93.5" width="75" height="75" as="geometry" />
        </mxCell>
        <mxCell id="leOx71lb5nMiQ_t4TzL1-3" value="Github Actions" style="text;html=1;strokeColor=none;fillColor=none;align=center;verticalAlign=middle;whiteSpace=wrap;rounded=0;" parent="1" vertex="1">
          <mxGeometry x="462.6" y="180.5" width="121" height="30" as="geometry" />
        </mxCell>
        <mxCell id="leOx71lb5nMiQ_t4TzL1-6" style="edgeStyle=orthogonalEdgeStyle;rounded=0;orthogonalLoop=1;jettySize=auto;html=1;" parent="1" source="leOx71lb5nMiQ_t4TzL1-4" target="leOx71lb5nMiQ_t4TzL1-2" edge="1">
          <mxGeometry relative="1" as="geometry" />
        </mxCell>
        <mxCell id="leOx71lb5nMiQ_t4TzL1-4" value="" style="shape=mxgraph.cisco.people.pc_man;html=1;pointerEvents=1;dashed=0;fillColor=#036897;strokeColor=#ffffff;strokeWidth=2;verticalLabelPosition=bottom;verticalAlign=top;align=center;outlineConnect=0;" parent="1" vertex="1">
          <mxGeometry x="688.1" y="87.5" width="70" height="87" as="geometry" />
        </mxCell>
        <mxCell id="leOx71lb5nMiQ_t4TzL1-5" value="Developer" style="text;html=1;strokeColor=none;fillColor=none;align=center;verticalAlign=middle;whiteSpace=wrap;rounded=0;" parent="1" vertex="1">
          <mxGeometry x="657.5" y="180.5" width="121" height="30" as="geometry" />
        </mxCell>
        <mxCell id="leOx71lb5nMiQ_t4TzL1-10" value="" style="outlineConnect=0;dashed=0;verticalLabelPosition=bottom;verticalAlign=top;align=center;html=1;shape=mxgraph.aws3.ecr;fillColor=#F58534;gradientColor=none;" parent="1" vertex="1">
          <mxGeometry x="282.25" y="95" width="69" height="72" as="geometry" />
        </mxCell>
        <mxCell id="leOx71lb5nMiQ_t4TzL1-12" style="edgeStyle=orthogonalEdgeStyle;rounded=0;orthogonalLoop=1;jettySize=auto;html=1;exitX=0.5;exitY=1;exitDx=0;exitDy=0;" parent="1" source="leOx71lb5nMiQ_t4TzL1-11" edge="1">
          <mxGeometry relative="1" as="geometry">
            <mxPoint x="317" y="280" as="targetPoint" />
          </mxGeometry>
        </mxCell>
        <mxCell id="leOx71lb5nMiQ_t4TzL1-11" value="AWS ECR" style="text;html=1;strokeColor=none;fillColor=none;align=center;verticalAlign=middle;whiteSpace=wrap;rounded=0;" parent="1" vertex="1">
          <mxGeometry x="256.25" y="180.5" width="121" height="30" as="geometry" />
        </mxCell>
        <mxCell id="leOx71lb5nMiQ_t4TzL1-13" value="&lt;font style=&quot;font-size: 10px;&quot;&gt;Create Lambda from Docker Image&lt;/font&gt;" style="text;html=1;strokeColor=none;fillColor=none;align=center;verticalAlign=middle;whiteSpace=wrap;rounded=0;fontSize=15;opacity=40;direction=west;" parent="1" vertex="1">
          <mxGeometry x="318.5" y="220" width="90" height="30" as="geometry" />
        </mxCell>
      </root>
    </mxGraphModel>
  </diagram>
</mxfile>
